<?xml version="1.0" standalone="no"?>
<!DOCTYPE svg PUBLIC "-//W3C//DTD SVG 20010904//EN"
 "http://www.w3.org/TR/2001/REC-SVG-20010904/DTD/svg10.dtd">
<svg version="1.0" xmlns="http://www.w3.org/2000/svg"
 width="766.000000pt" height="766.000000pt" viewBox="0 0 766.000000 766.000000"
 preserveAspectRatio="xMidYMid meet">
<metadata>
Created by potrace 1.16, written by Peter Selinger 2001-2019
</metadata>
<g transform="translate(0.000000,766.000000) scale(0.100000,-0.100000)"
fill="#000000" stroke="none">
<path d="M3565 7654 c-285 -28 -434 -52 -633 -100 -940 -229 -1758 -803 -2291
-1612 -339 -514 -534 -1055 -613 -1702 -8 -64 -13 -221 -13 -405 0 -373 24
-583 101 -903 229 -942 809 -1765 1619 -2296 429 -281 918 -478 1409 -566 272
-48 348 -54 691 -54 343 0 419 6 691 54 1013 182 1929 789 2503 1658 338 513
534 1056 613 1702 8 64 13 221 13 405 0 373 -24 583 -101 903 -229 940 -803
1758 -1612 2291 -491 324 -1020 521 -1617 602 -114 15 -219 21 -435 24 -157 1
-303 1 -325 -1z m719 -228 c546 -78 982 -229 1421 -494 421 -254 828 -637
1107 -1042 299 -433 504 -936 587 -1435 42 -255 46 -306 46 -620 0 -314 -4
-365 -46 -620 -99 -597 -369 -1187 -766 -1674 -111 -136 -368 -393 -504 -504
-487 -397 -1077 -667 -1674 -766 -255 -42 -306 -46 -620 -46 -314 0 -365 4
-620 46 -597 99 -1187 369 -1674 766 -136 111 -393 368 -504 504 -437 536
-694 1134 -794 1849 -25 179 -25 711 0 890 100 715 357 1313 794 1849 111 136
368 393 504 504 346 282 742 500 1159 637 274 91 524 141 865 174 98 10 615
-4 719 -18z"/>
<path d="M3530 6769 c-1232 -137 -2235 -1008 -2541 -2205 -69 -271 -83 -397
-83 -729 0 -252 3 -309 22 -434 56 -357 188 -740 350 -1017 l41 -71 -35 -103
c-19 -57 -43 -147 -55 -199 -22 -108 -36 -367 -20 -390 8 -12 28 -11 138 12
138 29 379 67 428 67 23 0 49 -16 110 -71 400 -355 888 -594 1415 -694 313
-60 757 -60 1070 0 441 84 854 264 1205 525 551 410 936 984 1106 1646 68 268
83 398 83 724 1 223 -3 311 -17 405 -23 154 -60 320 -103 462 -19 62 -34 124
-34 138 0 43 26 80 101 147 l71 63 -53 48 c-85 76 -183 138 -256 163 l-68 23
43 1 c61 0 145 -33 227 -88 106 -71 99 -69 91 -36 -15 61 -90 217 -136 283
-73 103 -153 166 -278 217 -92 38 -33 28 115 -20 76 -24 156 -47 178 -51 l40
-7 -44 38 c-84 74 -270 209 -358 259 -119 68 -275 129 -409 161 -106 25 -115
29 -183 85 -440 359 -958 578 -1526 644 -140 16 -504 19 -635 4z m2380 -918
c36 -6 106 -21 155 -34 l90 -22 -145 -6 c-80 -4 -181 -14 -225 -23 -136 -29
-299 -68 -314 -76 -7 -4 47 -10 120 -13 139 -7 262 -28 409 -72 84 -24 492
-177 487 -181 -1 -2 -50 4 -107 11 -129 18 -219 19 -293 4 -59 -12 -178 -67
-183 -84 -2 -5 58 -40 134 -76 75 -37 174 -94 219 -128 78 -57 143 -129 143
-156 0 -14 -73 -36 -205 -62 -66 -12 -139 -17 -275 -17 -217 0 -261 7 -640 99
-325 79 -372 86 -532 86 -110 0 -145 -4 -248 -31 -335 -86 -542 -183 -825
-389 -115 -83 -182 -140 -326 -276 -126 -118 -166 -164 -340 -391 -196 -257
-310 -368 -444 -434 -76 -38 -90 -41 -284 -65 -112 -14 -210 -25 -218 -25 -29
0 -5 264 41 455 82 336 227 569 549 881 346 337 792 593 1366 784 378 126 802
215 1199 250 129 11 610 5 692 -9z m-2244 -1718 c26 -384 -104 -749 -330 -919
-164 -125 -398 -184 -549 -140 -103 30 -222 128 -285 234 -29 50 -25 56 46 67
44 6 44 6 105 -58 34 -35 82 -74 106 -87 116 -58 296 -23 415 81 88 78 138
176 152 300 6 57 6 61 -12 55 -112 -35 -397 -116 -400 -114 -3 4 729 687 738
688 3 0 9 -48 14 -107z m1462 17 c50 -7 92 -16 92 -19 0 -4 -75 -41 -167 -83
l-168 -78 95 0 c108 0 212 -21 380 -75 l114 -37 -59 -23 c-79 -29 -174 -78
-205 -104 -24 -20 -22 -19 35 3 327 130 556 -37 715 -523 36 -108 110 -441
110 -491 0 -18 -4 -16 -44 14 -79 60 -129 71 -316 71 -150 0 -551 -8 -547 -11
1 -1 65 -20 142 -42 129 -38 273 -91 250 -91 -5 -1 -59 6 -120 14 -60 7 -200
21 -310 30 -110 8 -211 18 -225 21 -49 11 -13 -6 90 -41 297 -104 449 -240
504 -452 9 -34 16 -86 16 -117 0 -53 -2 -56 -27 -62 -232 -53 -398 -111 -596
-210 -129 -65 -205 -110 -417 -247 -345 -224 -461 -273 -645 -271 -92 1 -123
5 -190 28 -174 59 -368 189 -588 392 l-58 54 15 93 c9 50 41 268 71 482 31
215 57 397 60 405 3 8 44 37 92 65 154 87 290 183 347 247 70 77 114 168 253
518 107 273 108 275 168 336 119 120 209 165 405 198 52 8 106 18 120 20 51 9
518 -2 608 -14z m-3003 -1061 c28 -17 81 -56 116 -86 105 -90 158 -121 294
-169 72 -25 133 -48 137 -52 17 -17 -119 -119 -222 -168 -268 -128 -548 -327
-945 -673 -150 -130 -150 -130 -153 -99 -4 40 23 160 63 278 124 364 412 876
553 983 46 35 81 32 157 -14z m752 -636 c-3 -16 -20 -160 -38 -320 -18 -161
-36 -298 -39 -304 -5 -8 -29 -6 -86 5 -191 38 -417 46 -614 22 -63 -8 -236
-35 -383 -61 -148 -25 -273 -45 -279 -43 -12 4 73 79 219 195 304 241 585 397
858 473 98 28 264 58 324 59 42 1 43 0 38 -26z"/>
</g>
</svg>
